<?xml version="1.0"?><svg width="893.40771" height="613.5849" xmlns="http://www.w3.org/2000/svg" xmlns:xlink="http://www.w3.org/1999/xlink">
 <title>Bang</title>

 <metadata id="metadata7">image/svg+xml</metadata>
 <g>
  <title>Layer 1</title>
  <g id="layer2">
   <path fill="#000000" stroke="#000000" stroke-width="1px" id="path2891" d="m154.835938,271.840363l51.859039,-12.964752l-91.833725,-108.039673l128.56723,27.009918l0,-22.688324l47.53746,20.527527l-1.080414,-89.672928l66.984589,59.421829l34.572723,-129.64761l43.215851,139.371181l25.929535,-71.306198l22.688324,62.663025l44.296265,-148.014349l18.36676,137.210379l47.537415,-31.331512l3.241211,54.019836l66.984558,-60.502213l0,75.627777l142.612427,-78.86898l-84.270996,116.682854l51.85907,-2.160782l-21.607971,58.3414l142.612366,24.849121l-152.335938,44.296265l49.698303,50.778656l-69.145447,23.768707c0,0 61.582642,115.602509 57.261047,115.602509c-4.321594,0 -91.83374,-42.135529 -91.83374,-42.135529l22.688354,126.406464l-88.592529,-126.406464l-9.723572,52.939484l-45.376648,-46.457092l-10.803955,92.914124l-46.457062,-83.190552l-23.768738,32.411926l-28.090302,-39.974731l-62.663025,82.110168l-10.803955,-73.46698l-81.029785,27.009949l5.402008,-60.502228c0,0 -101.557297,92.914154 -100.476898,86.431732c1.080399,-6.482361 27.009918,-132.888794 27.009918,-132.888794l-81.029755,20.527527c0,0 62.66301,-70.2258 57.261032,-72.386566c-5.401993,-2.160828 -209.596973,-22.688354 -209.596973,-22.688354c0,0 199.873402,-45.376648 195.551807,-47.537445c-4.321594,-2.160797 -46.457062,-25.929535 -43.215866,-28.090302l0,0z"/>
  </g>
  <g opacity="0.709677" display="none" id="layer1">
   <image xlink:href="file:///home/gaston/GNU/tableau-bang.jpg" width="843.56616" height="565.18933" id="image2886" x="74.721355" y="50.338319"/>
  </g>
  <text transform="rotate(-1.26564 469.5 228.5) matrix(31.7422 0 0 1.44118 -8894.45 -90)" xml:space="preserve" text-anchor="middle" font-family="Arial" font-size="24" id="svg_1" y="228.4151" x="294.592285" stroke-width="0" stroke="#000000" fill="#000000"/>
  <text transform="matrix(29.0213 0 0 2.16857 -9366.21 -240.755)" xml:space="preserve" text-anchor="middle" font-family="Arial" font-size="24" id="svg_2" y="228.4151" x="338.592285" stroke-linecap="null" stroke-linejoin="null" stroke-dasharray="null" stroke-width="0" stroke="#000000" fill="#000000"/>
  <text transform="rotate(-2.09021 495.493 414.499) matrix(29.8575 0 0 2.27802 -13507.7 -446.592)" xml:space="preserve" text-anchor="middle" font-family="Arial" font-size="24" id="svg_3" y="385.4151" x="468.592285" stroke-linecap="null" stroke-linejoin="null" stroke-dasharray="null" stroke-width="0" stroke="#000000" fill="#000000"/>
 </g>
</svg>